<?xml version="1.0" encoding="UTF-8" standalone="no"?>
<svg width="101px" height="109px" viewBox="0 0 101 109" version="1.1" xmlns="http://www.w3.org/2000/svg" xmlns:xlink="http://www.w3.org/1999/xlink" xmlns:sketch="http://www.bohemiancoding.com/sketch/ns">
    <!-- Generator: Sketch 3.2.2 (9983) - http://www.bohemiancoding.com/sketch -->
    <title>Artboard 4</title>
    <desc>Created with Sketch.</desc>
    <defs></defs>
    <g id="Page-1" stroke="none" stroke-width="1" fill="none" fill-rule="evenodd" sketch:type="MSPage">
        <g id="Artboard-4" sketch:type="MSArtboardGroup" stroke-width="1.5" stroke="#231F20">
            <g id="hat" sketch:type="MSLayerGroup" transform="translate(24.000000, 17.000000)">
                <g id="Group" sketch:type="MSShapeGroup">
                    <path d="M11.851,13.241 L11.279,20.307 C11.279,20.307 13.923,29.019 28.826,29.019 C43.729,29.019 46.467,20.307 46.467,20.307 L45.931,13.373" id="Shape"></path>
                    <path d="M31.127,17.892 C29.953,18.251 28.048,18.251 26.874,17.892 L0.881,9.939 C-0.293,9.579 -0.293,8.997 0.881,8.638 L26.874,0.684 C28.048,0.324 29.953,0.324 31.126,0.684 L57.119,8.638 C58.293,8.997 58.293,9.579 57.119,9.94 L31.127,17.892 L31.127,17.892 Z" id="Shape"></path>
                    <path d="M43.682,31.585 L43.682,14.059" id="Shape"></path>
                    <path d="M30.846,10.166 L43.682,14.059" id="Shape"></path>
                    <path d="M30.142,9.743 C30.184,9.327 29.681,8.929 29.01,8.853 C28.338,8.778 27.755,9.054 27.708,9.47 C27.662,9.885 28.169,10.284 28.84,10.359 C29.2,10.399 29.531,10.337 29.771,10.208 C29.771,10.208 30.106,10.082 30.142,9.743 L30.142,9.743 Z" id="Shape"></path>
                </g>
            </g>
            <g id="head" sketch:type="MSLayerGroup" transform="translate(22.000000, 40.000000)">
                <g id="Group" sketch:type="MSShapeGroup">
                    <g id="brain" transform="translate(10.357143, 2.155172)">
                        <path d="M26.8022143,38.3127759 C24.4014286,37.6701724 25.4029643,34.3845862 25.0425357,31.8509828 C24.795,30.1314138 22.707,29.2837241 23.1461429,27.3159483 M26.2605357,39.688431 C23.1098929,38.5241724 22.8986071,34.7958103 21.5221429,31.9887586 C20.7474286,30.4111724 18.9763571,29.7875 18.81375,28.0016724 C16.2669286,28.0216552 14.7527143,26.9941207 14.3456786,24.8401897 C13.3151429,24.0535 11.8133571,23.7474483 12.0443214,21.6787069 C10.9071071,21.2695862 10.2546071,21.2948276 9.47264286,21.9542586 C6.76839286,21.5651207 4.05378571,22.3707414 2.56857143,20.5786034 C2.35832143,20.3251379 2.35832143,19.8613276 2.16257143,19.4774483 C1.53492857,18.2648103 0.455714286,16.9985345 0.267214286,15.7659138 C-0.0238214286,13.8927931 0.555142857,11.8934655 1.48521429,10.2675 C1.37128571,8.59315517 2.18017857,7.85694828 2.97353571,7.10601724 C3.68714286,4.75962069 4.99628571,3.01796552 6.76425,1.74432759 C7.18785714,1.77272414 7.7575,1.65177586 7.98328571,1.88105172 C8.56756802,1.26498197 14.4160043,3.92060085 20.5657259,3.79389858 C26.0693436,3.68050794 31.9470483,0.733144169 32.3515714,1.0565 C32.7244286,0.892431034 32.828,0.667362069 33.29925,0.918724138 C35.1003571,1.57184483 36.2448214,3.27353448 37.6326786,4.63025862 C39.4358571,6.39610345 41.5694286,8.77405172 41.4233929,12.329931 C42.7232143,13.0030345 43.1996429,16.1666207 42.3710714,17.690569 C42.9521071,21.8248966 41.4306429,24.9748103 39.2566786,26.7648448 C38.8165,26.8447759 38.6290357,26.6722931 38.3100357,26.6281207 C36.8703929,31.0474655 30.9481786,35.0019483 25.5831786,31.9898103" id="Shape"></path>
                        <path d="M22.5961786,3.94663793 C19.7831786,4.0192069 17.6485714,9.19684483 21.6837143,9.51236207 C21.8535714,10.4610172 22.7297857,11.3392069 23.6412143,11.102569 M11.7657143,7.25956897 C11.2323214,6.9167069 10.4700357,6.80943103 9.54721429,6.86201724 M16.98675,12.2941724 C16.7941071,10.7512931 15.4093571,8.61418966 13.0707143,9.24732759 C13.1245714,8.35441379 12.5228214,8.12724138 12.28875,7.52460345 M9.93975,12.2941724 C12.0608929,11.7609483 12.6988929,13.6782414 13.85475,14.5480172 C15.49325,14.3871034 16.1115714,15.2600345 16.98675,15.8731897 C18.39325,14.0789483 22.6262143,15.1538103 23.7717143,13.0903276 C24.0668929,13.3206552 24.4998214,13.4111034 25.0767143,13.3564138 C25.5458929,13.214431 25.8835357,12.9409828 26.2501786,12.6927759 C27.5489643,13.3721897 29.0124286,12.2195 29.3821786,11.1036207 C30.9678571,11.1246552 31.8119643,10.3905517 31.6006786,8.58474138 C32.2790714,8.34705172 33.1128214,8.26501724 33.1677143,7.39313793 C31.7052857,8.69727586 29.2661786,8.09463793 28.7307143,6.333 M37.6502857,13.2512414 C37.2629286,14.2272414 36.5482857,14.8708966 35.16975,14.8425 C34.0832857,16.9186034 32.2666429,18.2521897 29.81925,18.9494828 C30.8290714,19.692 31.6773214,18.5656034 32.82075,18.9494828 C33.2640357,19.4721897 33.1211071,20.5870172 33.47325,21.2022759 C34.7741071,21.3085 37.0651071,21.8922069 36.99675,20.5407414 M13.4622143,17.8588448 C13.1825714,17.0279828 11.6134643,16.2812586 10.7217143,16.9312241 C10.0205357,16.2286724 9.43328571,16.4800345 8.76421429,16.0046552 M24.9462143,22.2329655 C24.6406786,21.052931 22.3413929,21.1149828 21.42375,21.7018448 C20.7463929,21.0413621 19.6195357,20.5133966 18.4232857,20.7763276 C18.5165,18.6802414 15.3834643,17.2677759 14.2472857,19.185069" id="Shape"></path>
                    </g>
                    <path d="M24.5681786,57 C24.5681786,57 23.8773571,54.2150345 23.6153214,52.7594483 C23.3139286,51.0872069 23.04775,49.5790345 22.1663571,48.6366897 C16.4326429,47.8521034 11.4270357,51.4227069 7.51928571,48.783931 C6.84607143,48.3295862 6.19771429,47.2967931 6.06825,46.5742586 C5.75960714,44.8546897 6.98692857,43.3707069 6.64721429,41.4197586 C6.39346429,39.9452414 3.87460714,39.3867759 5.34221429,37.297 C3.393,36.8805172 4.08278571,34.1576034 5.05221429,33.1731897 C3.97921429,31.154931 0.799571429,31.4788621 0.70325,28.7559483 C0.63075,26.7050862 2.76225,25.8342586 3.74721429,24.7783276 C4.84196429,23.6088103 6.64721429,21.0888793 6.93825,19.4776379 C7.24171429,17.7927759 6.73732143,16.1552414 6.79325,14.9121034 C7.08895991,8.30022134 10.8140496,3.55660392 15.4353103,0.623070379 C15.9287668,0.309828699 18.8730239,5.78560425 28.4999996,6.07937559 C38.1269753,6.37314692 46.5196737,0.647727024 46.5196737,0.647727024 C46.5196737,0.647727024 48.438166,1.89155286 49.2844643,2.54382759 C54.4381786,6.51513793 57.70275,12.2617586 57.2605,20.3621379 C56.9860357,25.3998966 55.5453571,28.1690862 53.0555,31.2601034 C51.9503929,32.6315517 50.8401071,33.9903793 49.8644643,35.5301034 C48.8929643,37.064569 47.3373214,39.5382241 47.5444643,41.8614828 C47.7381429,44.0311897 48.85775,46.4228103 49.5744643,48.4894483 C50.2922143,50.5634483 51.5423214,52.4649655 51.6055,54.8218793" id="Shape"></path>
                </g>
            </g>
        </g>
    </g>
</svg>