<?xml version="1.0" encoding="UTF-8" standalone="no"?>
<svg width="154px" height="155px" viewBox="0 0 154 155" version="1.1" xmlns="http://www.w3.org/2000/svg" xmlns:xlink="http://www.w3.org/1999/xlink" xmlns:sketch="http://www.bohemiancoding.com/sketch/ns">
    <!-- Generator: Sketch 3.2.2 (9983) - http://www.bohemiancoding.com/sketch -->
    <title>Artboard 1@2x</title>
    <desc>Created with Sketch.</desc>
    <defs></defs>
    <g id="Page-1" stroke="none" stroke-width="1" fill="none" fill-rule="evenodd" sketch:type="MSPage">
        <g id="Artboard-1" sketch:type="MSArtboardGroup">
            <g id="Education_Science-13-+-Group" sketch:type="MSLayerGroup" transform="translate(2.000000, 2.000000)">
                <g id="Education_Science-13" sketch:type="MSShapeGroup">
                    <path d="M74.8732266,0.168182234 C116.22658,0.168182234 149.75,33.6880552 149.75,75.0437734 C149.75,116.39358 116.22658,149.917 74.8732266,149.917 C33.5234197,149.917 0,116.39358 0,75.0437734 C0,33.6880552 33.5234197,0.168182234 74.8732266,0.168182234 Z" id="Fill-1" fill="#4C979F"></path>
                    <path d="M92.624,85.772 C90.718,87.451 88.445,89.349 85.79,89.616 C85.24,89.671 84.666,89.139 84.081,89.189 C82.255,89.344 80.487,91.627 78.101,90.898 C78.774,96.79 82.969,99.924 89.206,99.227 C94.789,98.602 98.646,93.982 100.312,89.83 C98.121,88.106 94.506,87.805 92.624,85.772 L92.624,85.772 Z M73.188,46.474 C73.773,46.657 76.258,49.763 73.829,50.532 C73.407,50.047 74.056,49.338 73.829,48.396 C71.338,45.332 64.958,46.728 61.869,48.396 C61.81,48.771 62.47,49.461 61.869,49.678 C59.681,48.201 56.15,50.294 54.607,52.027 C53.988,52.773 54.727,53.559 53.753,53.95 C52.997,53.78 53.501,52.352 52.472,52.455 C49.329,53.939 47.821,57.058 46.492,60.357 C47.205,60.142 47.192,60.653 47.132,61.211 C44.514,60.82 43.969,63.573 44.569,65.696 C41.335,67.536 41.81,75.94 44.997,78.084 C45.475,77.052 47.159,75.238 48.414,76.375 C46.971,77.067 45.322,77.555 45.423,79.793 C47.648,82.245 54.783,82.796 57.384,80.86 C58.25,80.991 58.641,81.596 59.733,81.501 C60.125,81.252 59.881,80.367 60.801,80.646 C60.649,84.002 61.816,86.038 64.432,86.626 C64.751,92.795 72.738,91.55 77.673,90.47 C77.335,89.159 79.024,89.478 79.382,88.335 C79.038,87.113 77.61,86.975 77.46,85.558 C78.92,86.02 79.959,86.904 80.023,88.762 C79.928,89.522 79.158,89.605 78.741,90.044 C82.82,89.696 88.461,87.222 87.285,82.355 C86.97,81.056 85.727,80.977 85.148,79.579 C89.718,80.284 88.297,87.845 84.935,88.762 C88.377,88.574 90.345,86.911 92.196,85.13 C92.211,84.399 91.906,83.764 92.196,82.996 C92.557,82.044 93.595,82.297 94.332,81.501 C94.627,81.183 94.645,80.254 94.973,79.793 C95.903,78.486 97.143,77.713 97.963,77.87 C96.996,79.465 95.033,80.065 94.76,82.355 C90.827,83.168 93.732,86.067 95.614,86.839 C98.149,87.881 101.238,88.807 102.875,89.403 C103.139,88.954 103.466,88.57 103.729,88.121 C103.158,87.838 102.479,87.664 102.662,86.626 C103.708,86.435 103.665,87.332 104.797,87.053 C105.572,86.047 106.012,84.709 106.506,83.422 C106.632,82.585 105.333,83.171 105.652,82.141 C107.147,82.099 106.99,79.245 106.933,77.016 C106.283,76.992 105.476,77.902 105.225,77.016 C105.275,75.999 106.615,76.269 107.147,75.734 C107.529,73.442 107.614,69.756 105.652,69.114 C105.388,69.632 105.471,70.5 104.797,70.608 C103.402,69.283 105.905,68.544 105.438,66.763 C105.429,66.061 104.525,66.253 104.584,65.482 C104.99,62.5 102.755,60.345 101.38,58.434 C97.686,57.601 98.293,62.163 96.254,62.278 C97.264,60.441 97.438,57.767 100.312,57.794 C100.425,56.684 99.394,56.718 98.817,56.298 C97.092,54.322 95.659,52.054 92.837,51.173 C92.992,51.953 94.453,53.835 93.051,54.164 C92.199,50.814 89.282,49.53 86.216,48.396 C86.384,49.432 87.395,52.337 86.003,52.881 C85.339,51.883 85.9,49.751 85.148,48.396 C84.088,47.585 82.179,46.893 80.877,47.542 C80.631,47.005 79.983,46.87 79.596,46.474 C76.688,47.164 75.522,46.567 73.188,46.474 L73.188,46.474 Z M101.38,90.257 C99.112,97.124 89.767,103.264 81.304,98.586 C81.168,101.191 81.178,103.663 81.945,105.634 C82.391,106.781 83.376,107.367 83.227,108.411 C79.44,107.412 81.022,102.308 80.45,98.373 C80.062,95.7 76.767,94.383 77.46,91.325 C75.513,91.585 73.658,91.937 71.693,92.179 C71.897,94.948 74.877,95.988 75.965,98.373 C77.008,100.661 77.312,103.058 78.528,105.207 C79.697,107.276 81.345,108.37 82.372,110.546 C77.405,108.738 77.069,102.946 74.897,98.586 C73.676,96.136 70.883,95.167 70.626,92.393 C66.609,92.422 64.219,90.826 63.578,87.481 C61.952,86.259 59.58,85.783 59.947,82.569 C58.154,81.933 57.124,81.975 55.889,82.996 C51.623,82.392 47.341,83.646 44.997,80.86 C44.666,80.467 44.666,79.745 44.356,79.151 C43.369,77.265 41.666,75.298 41.366,73.384 C40.91,70.472 41.821,67.367 43.288,64.842 C43.107,62.241 44.385,61.098 45.637,59.929 C46.762,56.284 48.827,53.579 51.617,51.6 C52.286,51.644 53.185,51.456 53.54,51.813 C55.285,50 56.973,48.127 60.588,48.183 C63.369,45.555 67.594,45.831 71.479,45.834 C72.525,45.835 73.451,45.351 74.47,45.406 C75.019,45.436 75.607,46 76.178,46.046 C77.052,46.121 78.081,45.364 78.955,45.406 C79.454,45.43 80.474,45.912 81.091,46.046 C82.124,46.273 82.967,46.28 83.653,46.474 C84.287,46.653 84.737,47.327 85.362,47.542 C85.623,47.632 86.219,47.289 86.43,47.329 C88.398,47.696 90.63,49.468 91.983,50.532 C92.572,50.278 92.733,49.926 93.478,50.318 C96.317,51.332 98.122,53.974 100.312,56.085 C103.157,58.827 106.521,62.521 106.292,68.045 C108.342,69.09 109.094,74.007 107.788,76.375 C108.702,82.794 106.303,87.688 102.875,90.47 C102.182,90.594 101.882,90.325 101.38,90.257 L101.38,90.257 Z" id="Fill-2" fill="#CEA988"></path>
                    <path d="M76.605,88.762 C75.929,85.599 71.818,88.001 69.13,87.481 C67.098,87.086 67.313,85.649 65.5,84.918 C65.66,89.68 73.603,86.828 76.605,88.762 L76.605,88.762 Z M101.38,80.432 C102.096,81.14 101.362,83.298 102.234,83.849 C102.819,83.182 102.373,82.311 102.662,81.714 C103.701,81.378 105.061,82.433 105.011,81.287 C104.456,80.638 103.094,80.879 102.234,81.074 C102.116,79.697 101.437,78.88 100.099,78.724 C99.962,79.858 101.221,79.596 101.38,80.432 L101.38,80.432 Z M62.937,79.793 C63.903,80.164 64.118,79.245 65.073,79.151 C67.562,78.909 68.974,80.522 69.13,83.21 C71.419,82.491 73.638,83.487 74.47,84.918 C75.902,83.17 79.171,84.223 80.45,84.705 C79.951,82.804 76.188,82.903 74.684,83.849 C73.575,82.785 71.729,81.933 69.771,82.355 C69.925,78.979 64.797,76.703 62.937,79.793 L62.937,79.793 Z M45.851,68.258 C49.461,68.021 50.889,71.745 52.472,74.239 C51.382,74.574 50.176,74.791 49.909,75.947 C50.908,76.308 51.681,74.78 53.112,74.879 C55.018,75.964 57.375,76.597 58.238,78.724 C58.969,77.948 57.496,76.708 57.811,76.375 C59.559,76.229 60.48,77.927 61.655,77.656 C61.197,76.317 58.626,75.112 57.17,76.161 C56.023,75.029 55.06,75.433 53.967,74.666 C51.077,72.638 50.79,66.773 45.637,67.405 C45.622,67.777 45.685,68.069 45.851,68.258 L45.851,68.258 Z M93.051,67.833 C91.272,71.178 88.297,73.33 84.294,74.453 C85.943,75.649 87.334,73.835 89.206,74.453 C89.932,75.294 89.7,77.091 90.274,78.084 C92.403,78.254 96.154,79.196 96.04,77.016 C94.752,77.947 92.845,77.55 90.915,77.442 C90.337,76.811 90.557,75.38 90.274,74.453 C89.887,73.914 88.872,74.004 88.565,73.384 C90.402,71.803 92.777,70.762 93.905,68.472 C95.826,68.257 97.207,67.503 97.536,65.696 C97.491,65.457 97.299,65.363 97.109,65.268 C96.474,66.841 95.305,67.878 93.051,67.833 L93.051,67.833 Z M90.701,62.919 C90.966,65.391 89.532,66.165 87.071,65.91 C86.844,68.088 84.403,69.654 82.158,68.472 C81.487,70.226 78.537,69.498 77.673,68.472 C78.269,72.644 69.732,70.953 67.209,73.384 C65.225,71.309 60.615,71.863 59.947,68.472 C58.927,67.961 56.534,67.318 55.889,68.686 C59.362,67.826 60.406,70.917 62.296,72.317 C64.977,72.056 65.989,73.464 67.422,74.453 C69.728,71.561 76.655,73.292 78.528,69.967 C79.013,70.336 79.721,70.483 80.664,70.394 C81.432,70.166 81.988,69.726 82.585,69.327 C84.709,70.42 87.105,68.561 87.711,66.763 C90.307,66.797 91.688,65.615 91.342,62.706 C92.453,62.323 93.817,62.191 93.905,60.784 C91.512,62.886 87.52,61.915 86.644,59.075 C86.078,61.443 88.595,62.518 90.701,62.919 L90.701,62.919 Z M49.909,57.367 C50.614,57.807 51.388,56.798 52.686,57.153 C53.908,57.852 54.43,59.253 54.821,60.784 C58.444,60.364 60.114,61.898 60.588,64.628 C61.568,64.545 61.962,64.143 62.723,64.201 C65.331,64.401 66.036,67.893 67.422,68.686 C67.109,66.199 64.842,62.753 61.015,63.773 C61.101,62.335 60.115,61.967 59.733,60.997 C60.931,59.624 64.137,61.08 65.073,60.357 C63.534,58.951 60.349,59.556 58.879,60.57 C58.006,60.019 56.757,59.844 55.248,59.929 C55.363,57.241 51.689,54.915 49.909,57.367 L49.909,57.367 Z M85.79,55.872 C87.752,54.917 89.272,56.765 90.488,56.512 C90.013,55.288 86.376,53.73 85.79,55.872 L85.79,55.872 Z M62.51,50.318 C63.187,51.492 64.677,51.853 64.859,53.522 C68.605,52.836 72.195,53.774 74.043,55.659 C73.771,52.881 68.772,52.275 65.286,52.669 C64.894,51.457 63.79,49.942 62.51,50.318 L62.51,50.318 Z M76.605,55.231 C72,55.348 68.506,63.694 75.111,64.201 C75.389,65.731 76.823,67.147 78.314,66.763 C77.38,65.704 75.866,65.225 75.538,63.56 C69.286,63.154 72.883,55.852 77.247,55.872 C76.957,51.311 80.048,50.129 82.585,48.396 C82.281,48.345 82.225,48.044 81.945,47.969 C79.422,49.647 76.397,50.822 76.605,55.231 L76.605,55.231 Z M79.596,46.474 C79.983,46.87 80.631,47.005 80.877,47.542 C82.179,46.893 84.088,47.585 85.148,48.396 C85.9,49.751 85.339,51.883 86.003,52.881 C87.395,52.337 86.384,49.432 86.216,48.396 C89.282,49.53 92.199,50.814 93.051,54.164 C94.453,53.835 92.992,51.953 92.837,51.173 C95.659,52.054 97.092,54.322 98.817,56.298 C99.394,56.718 100.425,56.684 100.312,57.794 C97.438,57.767 97.264,60.441 96.254,62.278 C98.293,62.163 97.686,57.601 101.38,58.434 C102.755,60.345 104.99,62.5 104.584,65.482 C104.525,66.253 105.429,66.061 105.438,66.763 C105.905,68.544 103.402,69.283 104.797,70.608 C105.471,70.5 105.388,69.632 105.652,69.114 C107.614,69.756 107.529,73.442 107.147,75.734 C106.615,76.269 105.275,75.999 105.225,77.016 C105.476,77.902 106.283,76.992 106.933,77.016 C106.99,79.245 107.147,82.099 105.652,82.141 C105.333,83.171 106.632,82.585 106.506,83.422 C106.012,84.709 105.572,86.047 104.797,87.053 C103.665,87.332 103.708,86.435 102.662,86.626 C102.479,87.664 103.158,87.838 103.729,88.121 C103.466,88.57 103.139,88.954 102.875,89.403 C101.238,88.807 98.149,87.881 95.614,86.839 C93.732,86.067 90.827,83.168 94.76,82.355 C95.033,80.065 96.996,79.465 97.963,77.87 C97.143,77.713 95.903,78.486 94.973,79.793 C94.645,80.254 94.627,81.183 94.332,81.501 C93.595,82.297 92.557,82.044 92.196,82.996 C91.906,83.764 92.211,84.399 92.196,85.13 C90.345,86.911 88.377,88.574 84.935,88.762 C88.297,87.845 89.718,80.284 85.148,79.579 C85.727,80.977 86.97,81.056 87.285,82.355 C88.461,87.222 82.82,89.696 78.741,90.044 C79.158,89.605 79.928,89.522 80.023,88.762 C79.959,86.904 78.92,86.02 77.46,85.558 C77.61,86.975 79.038,87.113 79.382,88.335 C79.024,89.478 77.335,89.159 77.673,90.47 C72.738,91.55 64.751,92.795 64.432,86.626 C61.816,86.038 60.649,84.002 60.801,80.646 C59.881,80.367 60.125,81.252 59.733,81.501 C58.641,81.596 58.25,80.991 57.384,80.86 C54.783,82.796 47.648,82.245 45.423,79.793 C45.322,77.555 46.971,77.067 48.414,76.375 C47.159,75.238 45.475,77.052 44.997,78.084 C41.81,75.94 41.335,67.536 44.569,65.696 C43.969,63.573 44.514,60.82 47.132,61.211 C47.192,60.653 47.205,60.142 46.492,60.357 C47.821,57.058 49.329,53.939 52.472,52.455 C53.501,52.352 52.997,53.78 53.753,53.95 C54.727,53.559 53.988,52.773 54.607,52.027 C56.15,50.294 59.681,48.201 61.869,49.678 C62.47,49.461 61.81,48.771 61.869,48.396 C64.958,46.728 71.338,45.332 73.829,48.396 C74.056,49.338 73.407,50.047 73.829,50.532 C76.258,49.763 73.773,46.657 73.188,46.474 C75.522,46.567 76.688,47.164 79.596,46.474 L79.596,46.474 Z" id="Fill-3" fill="#E2BE95"></path>
                    <path d="M81.945,47.969 C82.225,48.044 82.281,48.345 82.585,48.396 C80.048,50.129 76.957,51.311 77.247,55.872 C72.883,55.852 69.286,63.154 75.538,63.56 C75.866,65.225 77.38,65.704 78.314,66.763 C76.823,67.147 75.389,65.731 75.111,64.201 C68.506,63.694 72,55.348 76.605,55.231 C76.397,50.822 79.422,49.647 81.945,47.969" id="Fill-4" fill="#CEA988"></path>
                    <path d="M65.286,52.669 C68.772,52.275 73.771,52.881 74.043,55.659 C72.195,53.774 68.605,52.836 64.859,53.522 C64.677,51.853 63.187,51.492 62.51,50.318 C63.79,49.942 64.894,51.457 65.286,52.669" id="Fill-5" fill="#CEA988"></path>
                    <path d="M90.488,56.512 C89.272,56.765 87.752,54.917 85.79,55.872 C86.376,53.73 90.013,55.288 90.488,56.512" id="Fill-6" fill="#CEA988"></path>
                    <path d="M55.248,59.929 C56.757,59.844 58.006,60.019 58.879,60.57 C60.349,59.556 63.534,58.951 65.073,60.357 C64.137,61.08 60.931,59.624 59.733,60.997 C60.115,61.967 61.101,62.335 61.015,63.773 C64.842,62.753 67.109,66.199 67.422,68.686 C66.036,67.893 65.331,64.401 62.723,64.201 C61.962,64.143 61.568,64.545 60.588,64.628 C60.114,61.898 58.444,60.364 54.821,60.784 C54.43,59.253 53.908,57.852 52.686,57.153 C51.388,56.798 50.614,57.807 49.909,57.367 C51.689,54.915 55.363,57.241 55.248,59.929" id="Fill-7" fill="#CEA988"></path>
                    <path d="M86.644,59.075 C87.52,61.915 91.512,62.886 93.905,60.784 C93.817,62.191 92.453,62.323 91.342,62.706 C91.688,65.615 90.307,66.797 87.711,66.763 C87.105,68.561 84.709,70.42 82.585,69.327 C81.988,69.726 81.432,70.166 80.664,70.394 C79.721,70.483 79.013,70.336 78.528,69.967 C76.655,73.292 69.728,71.561 67.422,74.453 C65.989,73.464 64.977,72.056 62.296,72.317 C60.406,70.917 59.362,67.826 55.889,68.686 C56.534,67.318 58.927,67.961 59.947,68.472 C60.615,71.863 65.225,71.309 67.209,73.384 C69.732,70.953 78.269,72.644 77.673,68.472 C78.537,69.498 81.487,70.226 82.158,68.472 C84.403,69.654 86.844,68.088 87.071,65.91 C89.532,66.165 90.966,65.391 90.701,62.919 C88.595,62.518 86.078,61.443 86.644,59.075" id="Fill-8" fill="#CEA988"></path>
                    <path d="M97.109,65.268 C97.299,65.363 97.491,65.457 97.536,65.696 C97.207,67.503 95.826,68.257 93.905,68.472 C92.777,70.762 90.402,71.803 88.565,73.384 C88.872,74.004 89.887,73.914 90.274,74.453 C90.557,75.38 90.337,76.811 90.915,77.442 C92.845,77.55 94.752,77.947 96.04,77.016 C96.154,79.196 92.403,78.254 90.274,78.084 C89.7,77.091 89.932,75.294 89.206,74.453 C87.334,73.835 85.943,75.649 84.294,74.453 C88.297,73.33 91.272,71.178 93.051,67.833 C95.305,67.878 96.474,66.841 97.109,65.268" id="Fill-9" fill="#CEA988"></path>
                    <path d="M45.637,67.405 C50.79,66.773 51.077,72.638 53.967,74.666 C55.06,75.433 56.023,75.029 57.17,76.161 C58.626,75.112 61.197,76.317 61.655,77.656 C60.48,77.927 59.559,76.229 57.811,76.375 C57.496,76.708 58.969,77.948 58.238,78.724 C57.375,76.597 55.018,75.964 53.112,74.879 C51.681,74.78 50.908,76.308 49.909,75.947 C50.176,74.791 51.382,74.574 52.472,74.239 C50.889,71.745 49.461,68.021 45.851,68.258 C45.685,68.069 45.622,67.777 45.637,67.405" id="Fill-10" fill="#CEA988"></path>
                    <path d="M69.771,82.355 C71.729,81.933 73.575,82.785 74.684,83.849 C76.188,82.903 79.951,82.804 80.45,84.705 C79.171,84.223 75.902,83.17 74.47,84.918 C73.638,83.487 71.419,82.491 69.13,83.21 C68.974,80.522 67.562,78.909 65.073,79.151 C64.118,79.245 63.903,80.164 62.937,79.793 C64.797,76.703 69.925,78.979 69.771,82.355" id="Fill-11" fill="#CEA988"></path>
                    <path d="M100.099,78.724 C101.437,78.88 102.116,79.697 102.234,81.074 C103.094,80.879 104.456,80.638 105.011,81.287 C105.061,82.433 103.701,81.378 102.662,81.714 C102.373,82.311 102.819,83.182 102.234,83.849 C101.362,83.298 102.096,81.14 101.38,80.432 C101.221,79.596 99.962,79.858 100.099,78.724" id="Fill-12" fill="#CEA988"></path>
                    <path d="M65.5,84.918 C67.313,85.649 67.098,87.086 69.13,87.481 C71.818,88.001 75.929,85.599 76.605,88.762 C73.603,86.828 65.66,89.68 65.5,84.918" id="Fill-13" fill="#CEA988"></path>
                    <path d="M100.312,89.83 C98.646,93.982 94.789,98.602 89.206,99.227 C82.969,99.924 78.774,96.79 78.101,90.898 C80.487,91.627 82.255,89.344 84.081,89.189 C84.666,89.139 85.24,89.671 85.79,89.616 C88.445,89.349 90.718,87.451 92.624,85.772 C94.506,87.805 98.121,88.106 100.312,89.83" id="Fill-14" fill="#E2BE95"></path>
                    <path d="M102.662,127.206 C100.848,122.94 97.385,115.432 96.04,109.479 C94.44,102.388 103.025,94.004 106.079,89.83 C109.874,84.641 111.343,75.776 109.283,67.405 C107.526,60.268 102.997,55.518 97.322,51.6 C90.718,47.041 82.086,43.304 70.626,44.125 C65.638,44.482 59.684,46.278 55.461,48.183 C47.794,51.641 41.261,58.206 40.084,67.833 C39.829,69.919 40.436,72.145 40.298,74.666 C39.91,81.76 34.251,84.186 30.9,89.189 C32.848,92.352 40.335,94.062 35.813,99.227 C36.441,100.449 38.763,99.979 39.443,101.149 C39.597,102.87 37.517,102.355 37.094,103.499 C38.203,105.149 39.196,105.1 39.657,106.703 C40.947,111.187 35.987,116.634 42.647,117.594 C48.582,118.45 55.152,115.148 61.442,116.313 C63.111,117.574 63.868,120 64.432,122.721 C64.927,125.108 66.185,128.018 65.286,129.768 C63.11,129.356 63.109,126.325 62.723,124.215 C62.279,121.789 61.889,119.603 60.588,118.236 C52.146,117.098 44.773,122.277 39.017,118.45 C38.026,117.791 37.072,116.293 36.881,115.246 C36.425,112.752 38.234,110.598 37.735,107.771 C37.357,105.629 33.65,104.822 35.813,101.791 C32.94,101.186 33.958,97.238 35.386,95.81 C33.804,92.882 29.121,93.352 28.979,89.403 C28.872,86.43 32.011,85.167 33.463,83.635 C35.075,81.938 37.734,78.286 38.162,75.947 C38.609,73.503 37.867,71.127 37.948,69.327 C38.431,58.713 45.099,51.418 52.899,47.329 C57.3,45.021 62.966,43.308 67.849,42.417 C79.933,40.21 92.609,45.377 100.526,51.386 C108.115,57.146 112.923,65.481 112.272,77.229 C111.868,84.536 109.745,88.551 106.079,93.034 C104.452,95.023 102.818,96.995 101.38,99.227 C99.949,101.451 97.659,105.039 97.963,108.411 C98.247,111.558 99.897,115.024 100.953,118.022 C102.012,121.03 103.851,123.787 103.943,127.206 L102.662,127.206" id="Fill-15" fill="#BFC0BE"></path>
                </g>
                <g id="Group" transform="translate(26.000000, 16.000000)" sketch:type="MSShapeGroup">
                    <path d="M22.2788312,18.9790192 L18.8349515,33.0043269 C18.8349515,33.0043269 24.706909,48.6880962 47.4855782,48.6871538 C70.2625198,48.6871538 76.2787282,33.0052692 76.2787282,33.0052692 L72.8357121,18.9790192 L22.2788312,18.9790192" id="Fill-2" fill="#212724"></path>
                    <path d="M22.3694108,18.9790192 L18.8349515,33.0043269 C18.8349515,33.0043269 24.861351,48.6880962 48.2391359,48.6871538 L48.0618367,18.9790192 L22.3694108,18.9790192" id="Fill-3" fill="#28302C"></path>
                    <path d="M20.7570583,18.9790192 L19.5949417,23.0318846 L45.0061165,30.4572692 C46.951767,31.0509231 50.1047379,31.0509231 52.0494466,30.4572692 L77.0387184,23.1628654 L75.8775437,18.9790192 L20.7570583,18.9790192" id="Fill-4" fill="#151917"></path>
                    <path d="M52.0494466,29.0051731 C50.1047379,29.5988269 46.951767,29.5988269 45.0061165,29.0051731 L1.97390291,15.8288846 C0.0291941748,15.2324038 0.0291941748,14.2693654 1.97390291,13.6738269 L45.0061165,0.498480769 C46.9498835,-0.098 50.1037961,-0.098 52.0475631,0.498480769 L95.0807184,13.6738269 C97.0254272,14.2693654 97.0254272,15.2324038 95.0807184,15.8298269 L52.0494466,29.0051731" id="Fill-5" fill="#28302C"></path>
                    <path d="M72.8752524,22.5965385 C72.5531748,22.5965385 72.2923107,22.8594423 72.2923107,23.1807692 L72.2923107,46.8477692 C72.2923107,47.1690962 72.5531748,47.4310577 72.8752524,47.4310577 C73.1982718,47.4310577 73.4591359,47.1690962 73.4591359,46.8477692 L73.4591359,23.1807692 C73.4591359,22.8594423 73.1982718,22.5965385 72.8752524,22.5965385" id="Fill-6" fill="#B31111"></path>
                    <path d="M73.0315825,22.6163269 L48.612068,14.9883462 C48.306,14.8912885 47.9773301,15.0637308 47.8803301,15.3709231 C47.7842718,15.6790577 47.9556699,16.0069808 48.2626796,16.1030962 L72.6812524,23.72825 C72.9892039,23.8271923 73.316932,23.65475 73.4129903,23.3485 C73.5099903,23.0394231 73.3376505,22.7105577 73.0315825,22.6163269" id="Fill-7" fill="#B31111"></path>
                    <path d="M74.4602136,35.6738846 C74.4602136,36.6896923 73.7322427,37.5151538 72.8338155,37.5151538 C71.9363301,37.5151538 71.2083592,36.6896923 71.2083592,35.6738846 C71.2083592,34.6543077 71.9363301,33.8307308 72.8338155,33.8307308 C73.7322427,33.8307308 74.4602136,34.6543077 74.4602136,35.6738846" id="Fill-8" fill="#B31111"></path>
                    <path d="M72.3036117,37.1872308 C72.3036117,37.1872308 70.694165,39.0445192 70.694165,40.1705769 C70.694165,40.6379615 70.6772136,43.2509808 70.6649709,45.1544423 C70.6574369,46.3059423 69.8023301,47.1973654 69.8023301,47.1973654 C69.8023301,47.8466154 75.8643592,47.8466154 75.8643592,47.1973654 C75.8643592,47.1973654 75.0083107,46.3313846 74.999835,45.2072115 C74.9857087,43.3489808 74.9668738,40.7849615 74.9668738,40.2553846 C74.9668738,39.0445192 73.3621359,37.1862885 73.3621359,37.1862885 L72.3036117,37.1872308" id="Fill-9" fill="#B31111"></path>
                    <path d="M51.6906408,15.6715192 C51.6906408,16.7137115 50.324165,17.5608462 48.6384369,17.5608462 C46.9527087,17.5608462 45.586233,16.7137115 45.586233,15.6715192 C45.586233,14.6283846 46.9527087,13.7803077 48.6384369,13.7803077 C50.324165,13.7803077 51.6906408,14.6283846 51.6906408,15.6715192" id="Fill-10" fill="#252624"></path>
                </g>
            </g>
        </g>
    </g>
</svg>